<?xml version="1.0" encoding="utf-8"?>
<!-- Generator: Adobe Illustrator 24.2.1, SVG Export Plug-In . SVG Version: 6.00 Build 0)  -->
<svg version="1.1" id="Layer_1" xmlns="http://www.w3.org/2000/svg" xmlns:xlink="http://www.w3.org/1999/xlink" x="0px" y="0px"
	 viewBox="0 0 49 49" style="enable-background:new 0 0 49 49;" xml:space="preserve">
<style type="text/css">
	.st0{fill-rule:evenodd;clip-rule:evenodd;fill:#111111;}
</style>
<desc>Created with Sketch.</desc>
<g id="Page-1">
	<g id="web-wow" transform="translate(-271.000000, -829.000000)">
		<g id="services" transform="translate(0.000000, 648.000000)">
			<g id="ui" transform="translate(123.000000, 181.000000)">
				<g id="ico-ui" transform="translate(148.000000, 0.000000)">
					<path id="Fill-8" class="st0" d="M32.9,29.6c-1.7,0-3.2,1.4-3.2,3.2v9.3c0,1.7,1.4,3.2,3.2,3.2h9.3c1.7,0,3.2-1.4,3.2-3.2v-9.3
						c0-1.7-1.4-3.2-3.2-3.2H32.9z M42.2,48.3h-9.3c-3.4,0-6.2-2.8-6.2-6.2v-9.3c0-3.4,2.8-6.2,6.2-6.2h9.3c3.4,0,6.2,2.8,6.2,6.2
						v9.3C48.3,45.5,45.6,48.3,42.2,48.3L42.2,48.3z M32.9,3c-1.7,0-3.2,1.4-3.2,3.2v9.3c0,1.7,1.4,3.2,3.2,3.2h9.3
						c1.7,0,3.2-1.4,3.2-3.2V6.2c0-1.7-1.4-3.2-3.2-3.2H32.9z M42.2,21.6h-9.3c-3.4,0-6.2-2.8-6.2-6.2V6.2c0-3.4,2.8-6.2,6.2-6.2
						h9.3c3.4,0,6.2,2.8,6.2,6.2v9.3C48.3,18.9,45.6,21.6,42.2,21.6L42.2,21.6z M6.2,29.6c-1.7,0-3.2,1.4-3.2,3.2v9.3
						c0,1.7,1.4,3.2,3.2,3.2h9.3c1.7,0,3.2-1.4,3.2-3.2v-9.3c0-1.7-1.4-3.2-3.2-3.2H6.2z M15.5,48.3H6.2c-3.4,0-6.2-2.8-6.2-6.2
						v-9.3c0-3.4,2.8-6.2,6.2-6.2h9.3c3.4,0,6.2,2.8,6.2,6.2v9.3C21.6,45.5,18.9,48.3,15.5,48.3L15.5,48.3z"/>
					<path id="Fill-1" class="st0" d="M6.2,3C4.4,3,3,4.4,3,6.2v9.3c0,1.7,1.4,3.2,3.2,3.2h9.3c1.7,0,3.2-1.4,3.2-3.2V6.2
						c0-1.7-1.4-3.2-3.2-3.2H6.2z M15.5,21.6H6.2c-3.4,0-6.2-2.8-6.2-6.2V6.2C0,2.8,2.8,0,6.2,0h9.3c3.4,0,6.2,2.8,6.2,6.2v9.3
						C21.6,18.9,18.9,21.6,15.5,21.6L15.5,21.6z"/>
				</g>
			</g>
		</g>
	</g>
</g>
</svg>
