<?xml version="1.0" encoding="utf-8"?>
<!-- Generator: Adobe Illustrator 24.2.1, SVG Export Plug-In . SVG Version: 6.00 Build 0)  -->
<svg version="1.1" id="Layer_1" xmlns="http://www.w3.org/2000/svg" xmlns:xlink="http://www.w3.org/1999/xlink" x="0px" y="0px"
	 viewBox="0 0 56 48" style="enable-background:new 0 0 56 48;" xml:space="preserve">
<style type="text/css">
	.st0{fill-rule:evenodd;clip-rule:evenodd;fill:#111111;}
</style>
<desc>Created with Sketch.</desc>
<g id="Page-1">
	<g id="web-wow" transform="translate(-720.000000, -830.000000)">
		<g id="services" transform="translate(0.000000, 648.000000)">
			<g id="ui-copy" transform="translate(576.000000, 182.000000)">
				<g id="ico-front" transform="translate(144.000000, 0.000000)">
					<path id="Fill-16" class="st0" d="M39.9,25.4c0.8,0,1.5,0.7,1.5,1.5c0,0.8-0.7,1.5-1.5,1.5h-1.7c-0.4,0-0.7,0.3-0.7,0.7v14.3
						c0,0.4,0.3,0.7,0.7,0.7h1.7c0.8,0,1.5,0.7,1.5,1.5s-0.7,1.5-1.5,1.5h-1.7c-2,0-3.7-1.7-3.7-3.7V29.2c0-2,1.7-3.7,3.7-3.7H39.9z
						 M51.9,25.4c2,0,3.7,1.7,3.7,3.7v14.3c0,2-1.7,3.7-3.7,3.7h-1.7c-0.8,0-1.5-0.7-1.5-1.5s0.7-1.5,1.5-1.5h1.7
						c0.4,0,0.7-0.3,0.7-0.7V29.2c0-0.4-0.3-0.7-0.7-0.7h-1.7c-0.8,0-1.5-0.7-1.5-1.5c0-0.8,0.7-1.5,1.5-1.5H51.9z"/>
					<path id="Fill-23" class="st0" d="M42.8,0C46.2,0,49,2.8,49,6.2v15.7c0,0.8-0.7,1.5-1.5,1.5c-0.8,0-1.5-0.7-1.5-1.5v-7.5H3
						v26.5c0,1.7,1.4,3.2,3.2,3.2h23.3c0.8,0,1.5,0.7,1.5,1.5c0,0.8-0.7,1.5-1.5,1.5H6.2c-3.4,0-6.2-2.8-6.2-6.2V6.2
						C0,2.8,2.8,0,6.2,0H42.8z M13.9,32.5c0.8,0,1.5,0.7,1.5,1.5c0,0.8-0.7,1.5-1.5,1.5H9.4c-0.8,0-1.5-0.7-1.5-1.5
						c0-0.8,0.7-1.5,1.5-1.5H13.9z M13.9,25.4c0.8,0,1.5,0.7,1.5,1.5c0,0.8-0.7,1.5-1.5,1.5H9.4c-0.8,0-1.5-0.7-1.5-1.5
						c0-0.8,0.7-1.5,1.5-1.5H13.9z M23.6,25.4c0.8,0,1.5,0.7,1.5,1.5c0,0.8-0.7,1.5-1.5,1.5h-4.5c-0.8,0-1.5-0.7-1.5-1.5
						c0-0.8,0.7-1.5,1.5-1.5H23.6z M17.6,18.4c0.8,0,1.5,0.7,1.5,1.5s-0.7,1.5-1.5,1.5h-9c-0.8,0-1.5-0.7-1.5-1.5s0.7-1.5,1.5-1.5
						H17.6z M29.6,18.4c0.8,0,1.5,0.7,1.5,1.5s-0.7,1.5-1.5,1.5h-4.5c-0.8,0-1.5-0.7-1.5-1.5s0.7-1.5,1.5-1.5H29.6z M42.8,3H6.2
						C4.4,3,3,4.4,3,6.2v5.1h43V6.2C46,4.4,44.6,3,42.8,3z M13.8,5.9c0.8,0,1.5,0.7,1.5,1.5c0,0.8-0.7,1.5-1.5,1.5
						c-0.8,0-1.5-0.7-1.5-1.5C12.3,6.6,13,5.9,13.8,5.9z M7.9,5.9c0.8,0,1.5,0.7,1.5,1.5c0,0.8-0.7,1.5-1.5,1.5
						C7,8.9,6.4,8.2,6.4,7.4C6.4,6.6,7,5.9,7.9,5.9z"/>
				</g>
			</g>
		</g>
	</g>
</g>
</svg>
