<?xml version="1.0" encoding="utf-8"?>
<!-- Generator: Adobe Illustrator 24.2.1, SVG Export Plug-In . SVG Version: 6.00 Build 0)  -->
<svg version="1.1" id="Layer_1" xmlns="http://www.w3.org/2000/svg" xmlns:xlink="http://www.w3.org/1999/xlink" x="0px" y="0px"
	 viewBox="0 0 58 47" style="enable-background:new 0 0 58 47;" xml:space="preserve">
<style type="text/css">
	.st0{fill-rule:evenodd;clip-rule:evenodd;fill:#111111;}
</style>
<desc>Created with Sketch.</desc>
<g id="Page-1">
	<g id="web-wow" transform="translate(-1176.000000, -829.000000)">
		<g id="services" transform="translate(0.000000, 648.000000)">
			<g id="ui-copy-2" transform="translate(1032.000000, 181.000000)">
				<g id="ico-brand" transform="translate(144.000000, 0.000000)">
					<path id="Fill-1" class="st0" d="M28.3,14.8c-2.4,0-4.3,1.9-4.3,4.3s1.9,4.3,4.3,4.3s4.3-1.9,4.3-4.3S30.6,14.8,28.3,14.8
						 M28.3,26.4c-4,0-7.3-3.3-7.3-7.3s3.3-7.3,7.3-7.3s7.3,3.3,7.3,7.3S32.3,26.4,28.3,26.4"/>
					<path id="Fill-5" class="st0" d="M48.6,31.6V17.9c3.1,0.7,5.5,3.5,5.5,6.8S51.8,30.9,48.6,31.6L48.6,31.6z M45.6,40.8
						c0,1.7-1.4,3.2-3.2,3.2H14c-1.7,0-3.2-1.4-3.2-3.2V6.2C10.9,4.4,12.3,3,14,3h28.4c1.7,0,3.2,1.4,3.2,3.2V40.8z M3,24.7
						c0-3.1,2.1-5.8,4.9-6.7v13.3C5.1,30.5,3,27.9,3,24.7L3,24.7z M57.1,24.7c0-5-3.7-9.1-8.5-9.9V6.2c0-3.4-2.8-6.2-6.2-6.2H14
						c-3.4,0-6.2,2.8-6.2,6.2V15C3.4,16,0,20,0,24.7s3.4,8.8,7.9,9.8v6.3c0,3.4,2.8,6.2,6.2,6.2h28.4c3.4,0,6.2-2.8,6.2-6.2v-6.2
						C53.4,33.9,57.1,29.7,57.1,24.7L57.1,24.7z M34.8,35H21.7c-0.9,0-1.6-0.7-1.6-1.6c0-0.9,0.7-1.6,1.6-1.6h13.1
						c0.9,0,1.6,0.7,1.6,1.6C36.4,34.3,35.7,35,34.8,35 M34.8,28.7H21.7c-2.6,0-4.6,2.1-4.6,4.6c0,2.6,2.1,4.6,4.6,4.6h13.1
						c2.6,0,4.6-2.1,4.6-4.6C39.4,30.8,37.4,28.7,34.8,28.7"/>
				</g>
			</g>
		</g>
	</g>
</g>
</svg>
